<svg id="Layer_1" data-name="Layer 1" xmlns="http://www.w3.org/2000/svg" viewBox="0 0 500 488.43"><defs><style>.cls-1{fill:#fff;stroke:#000;stroke-miterlimit:10;stroke-width:5px;}</style></defs><title>heart-regular</title><path class="cls-1" d="M253.4,60.49l10.73,13.25,11.6-13.23c32.39-36,77.25-52.45,121.33-44.07C463.68,29.11,512.5,94.94,512.5,172.12v6.4c0,45.82-16.63,89.65-46,120.9L291.78,485.68a35.8,35.8,0,0,1-53.56,0L63.51,299.42c-29.35-31.25-46-75.08-46-120.9v-6.4c0-77.18,48.84-143,115.44-155.68,43.21-8.38,88.94,8,120.46,44.05-.87,0,0,0,0,0Z" transform="translate(-15 -11.79)"/></svg>