<?xml version="1.0" encoding="utf-8"?>
<!-- Generator: Adobe Illustrator 22.1.0, SVG Export Plug-In . SVG Version: 6.00 Build 0)  -->
<svg version="1.1" id="Layer_1" xmlns="http://www.w3.org/2000/svg" xmlns:xlink="http://www.w3.org/1999/xlink" x="0px" y="0px"
	 viewBox="0 0 536 512" style="enable-background:new 0 0 536 512;" xml:space="preserve">
<style type="text/css">
	.st0{fill:none;stroke:#000000;stroke-width:5;stroke-miterlimit:10;}
</style>
<path class="st0" d="M253.4,60.5l10.7,13.2l11.6-13.2c32.4-36,77.2-52.5,121.3-44.1c66.6,12.7,115.4,78.5,115.4,155.7v6.4
	c0,45.8-16.6,89.7-46,120.9L291.8,485.7c-7.3,7.7-16.8,12-26.8,12s-19.5-4.3-26.8-12L63.5,299.4c-29.4-31.2-46-75.1-46-120.9v-6.4
	c0-77.2,48.8-143,115.4-155.7C176.2,8.1,221.9,24.5,253.4,60.5C252.5,60.5,253.4,60.5,253.4,60.5L253.4,60.5z"/>
</svg>
